<?xml version="1.0" standalone="no"?><!DOCTYPE svg PUBLIC "-//W3C//DTD SVG 1.1//EN" "http://www.w3.org/Graphics/SVG/1.1/DTD/svg11.dtd"><svg t="1506151538519" class="icon" style="" viewBox="0 0 1024 1024" version="1.1" xmlns="http://www.w3.org/2000/svg" p-id="996" xmlns:xlink="http://www.w3.org/1999/xlink" width="20" height="20"><defs><style type="text/css"></style></defs><path d="M986.498299 882.670189 733.465933 629.637823c98.849814-154.179531 81.05433-362.034486-53.598901-496.694766-155.33945-155.332402-408.009341-155.332402-563.34275 0-155.334415 155.333408-155.334415 408.004307 0 563.341743 134.659273 134.655246 342.586723 152.520204 496.693759 53.599908l253.105868 253.104861c29.537643 29.539657 77.376221 29.539657 106.845397 0l13.402494-13.401487C1016.109444 960.119912 1016.109444 912.281335 986.498299 882.670189L986.498299 882.670189zM203.344977 609.391609c-107.423343-107.421329-107.423343-282.208542 0-389.702366 107.34682-107.419315 282.205521-107.419315 389.628864 0 107.351855 107.423343 107.351855 282.209549 0 389.56241C485.628028 716.816966 310.764292 716.816966 203.344977 609.391609L203.344977 609.391609zM203.344977 609.391609" p-id="997" fill="#8a8a8a"></path></svg>